<?xml version="1.0" encoding="UTF-8"?>
<svg id="_圖層_1" data-name="圖層_1" xmlns="http://www.w3.org/2000/svg" viewBox="0 0 342.76 77.55">
  <defs>
    <style>
      .cls-1 {
        fill: #2e5141;
      }
    </style>
  </defs>
  <path class="cls-1" d="M106.16,24.07v41.44c0,2.96.49,5.15,1.48,6.56.99,1.42,4.51,2.12,7.01,2.12v2.07c-2.04-.2-5.86-.3-7.9-.3-2.43,0-4.75.1-6.96.3-2.2.2-4.23.56-6.07,1.09v-9.87c-1.64,3.62-3.9,6.2-6.76,7.74-2.86,1.54-5.94,2.32-9.22,2.32-2.57,0-4.72-.35-6.46-1.04-1.74-.69-3.14-1.63-4.19-2.81-1.12-1.25-1.91-2.89-2.37-4.93-.46-2.04-.69-4.67-.69-7.89v-24.96c0-2.96-.48-5.15-1.43-6.56-.95-1.41-2.71-2.12-5.28-2.12v-2.07c2.1.2,4.14.3,6.12.3,2.43,0,4.75-.11,6.96-.35,2.2-.23,4.23-.57,6.07-1.04v40.26c0,1.78.15,3.35.44,4.74.3,1.38.9,2.48,1.83,3.31.92.82,2.3,1.23,4.14,1.23,2.04,0,3.88-.59,5.53-1.78,1.64-1.18,2.94-2.79,3.9-4.83.95-2.04,1.43-4.34,1.43-6.91v-24.17c0-2.96-.48-5.15-1.43-6.56-.95-1.41-2.71-2.12-5.28-2.12v-2.07c2.1.2,4.14.3,6.12.3,2.43,0,4.75-.11,6.96-.35,2.2-.23,4.23-.57,6.07-1.04Z"/>
  <path class="cls-1" d="M152.14,23.78c2.57,0,4.72.36,6.46,1.09,1.74.72,3.11,1.65,4.09,2.76,1.18,1.25,2.01,2.91,2.47,4.98.46,2.07.69,4.69.69,7.84v26.54c0,2.76.48,4.64,1.43,5.62.95.99,2.58,1.48,4.88,1.48v2.07c-1.18-.06-2.96-.15-5.33-.25-2.37-.1-4.67-.15-6.91-.15-2.37,0-4.65.05-6.86.15-2.2.1-3.86.18-4.98.25v-2.07c1.91,0,3.27-.49,4.09-1.48.82-.99,1.23-2.86,1.23-5.62v-29.9c0-1.78-.13-3.37-.39-4.79-.26-1.41-.82-2.53-1.68-3.35-.86-.82-2.17-1.23-3.95-1.23-2.04,0-3.88.59-5.53,1.78-1.65,1.18-2.94,2.81-3.9,4.88-.95,2.07-1.43,4.39-1.43,6.96v25.65c0,2.76.4,4.64,1.18,5.62.79.99,2.17,1.48,4.14,1.48v2.07c-1.12-.06-2.75-.15-4.88-.25-2.14-.1-4.33-.15-6.56-.15-2.43,0-4.9.05-7.4.15-2.5.1-7.13.18-8.38.25v-2.07c2.43,0,6.91-.49,7.93-1.48,1.02-.99,1.53-2.86,1.53-5.62v-31.08c0-2.96-.48-5.15-1.43-6.56-.95-1.41-2.71-2.12-5.28-2.12v-2.07c2.1.2,4.14.3,6.12.3,2.43,0,4.75-.11,6.96-.35,2.2-.23,4.23-.57,6.07-1.04v9.87c1.64-3.62,3.85-6.22,6.61-7.79,2.76-1.58,5.75-2.37,8.98-2.37ZM181.84,23.78c2.57,0,4.72.36,6.46,1.09,1.74.72,3.11,1.65,4.09,2.76,1.18,1.25,2.01,2.91,2.47,4.98.46,2.07.69,4.69.69,7.84v26.54c0,2.76.51,4.64,1.53,5.62,1.02.99,4.76,1.48,7.2,1.48v2.07c-1.18-.06-5.02-.15-7.49-.25s-4.85-.15-7.15-.15-4.65.05-6.86.15c-2.21.1-3.87.18-4.98.25v-2.07c1.91,0,3.27-.49,4.09-1.48.82-.99,1.23-2.86,1.23-5.62v-29.9c0-1.78-.15-3.37-.44-4.79-.3-1.41-.91-2.53-1.83-3.35-.92-.82-2.3-1.23-4.14-1.23-2.04,0-3.88.63-5.53,1.87-1.65,1.25-2.94,2.91-3.9,4.98-.95,2.07-1.46,4.39-1.53,6.96l-.49-7.1c1.78-4.08,4.14-6.87,7.1-8.39,2.96-1.51,6.12-2.27,9.47-2.27Z"/>
  <path class="cls-1" d="M225.25,24.07v42.92c0,2.76.51,4.64,1.53,5.62,1.02.99,5.45,1.48,7.88,1.48v2.07c-1.18-.06-5.7-.15-8.13-.25-2.43-.1-4.9-.15-7.4-.15s-4.9.05-7.4.15c-2.5.1-6.21.18-7.46.25v-2.07c2.43,0,5.99-.49,7.01-1.48,1.02-.99,1.53-2.86,1.53-5.62v-31.08c0-2.96-.48-5.15-1.43-6.56-.95-1.41-2.71-2.12-5.28-2.12v-2.07c2.1.2,4.14.3,6.12.3,2.43,0,4.75-.11,6.96-.35,2.2-.23,4.23-.57,6.07-1.04ZM218.34,0c2.37,0,4.31.66,5.82,1.97,1.51,1.32,2.27,3.06,2.27,5.23s-.76,3.91-2.27,5.23c-1.51,1.32-3.45,1.97-5.82,1.97s-4.31-.66-5.82-1.97c-1.51-1.31-2.27-3.06-2.27-5.23s.76-3.91,2.27-5.23c1.51-1.31,3.45-1.97,5.82-1.97Z"/>
  <path class="cls-1" d="M271.92,23.78c2.76,0,4.98.36,6.66,1.09,1.68.72,3.04,1.65,4.09,2.76,1.18,1.25,2.02,2.86,2.52,4.83.49,1.97.74,4.64.74,7.99v26.54c0,2.76.51,4.64,1.53,5.62.73.71,3.1,1.16,5.28,1.36.86.08,11.64.12,12.33.12l2.97,2.07c-.41-.02-14.11-.05-15.05-.07-1.8-.05-4.2-.11-5.82-.17-2.47-.1-4.85-.15-7.15-.15-2.43,0-4.8.05-7.1.15-2.3.1-4.01.18-5.13.25v-2.07c2.1,0,3.58-.49,4.44-1.48.85-.99,1.28-2.86,1.28-5.62v-29.9c0-1.78-.17-3.37-.49-4.79-.33-1.41-.99-2.53-1.97-3.35-.99-.82-2.4-1.23-4.24-1.23-2.17,0-4.09.59-5.77,1.78-1.68,1.18-2.99,2.81-3.95,4.88-.95,2.07-1.43,4.39-1.43,6.96v25.65c0,2.76.43,4.64,1.28,5.62.85.99,2.33,1.48,4.44,1.48v2.07c-1.12-.06-2.8-.15-5.03-.25-2.24-.1-4.51-.15-6.81-.15-2.43,0-4.9.05-7.4.15-2.5.1-6.21.18-7.46.25v-2.07c2.43,0,6-.49,7.02-1.48,1.02-.99,1.53-2.86,1.53-5.62v-31.08c0-2.96-.48-5.15-1.43-6.56-.95-1.41-2.71-2.12-5.28-2.12v-2.07c2.1.2,4.14.3,6.12.3,2.43,0,4.75-.11,6.96-.35,2.2-.23,4.23-.57,6.07-1.04v9.87c1.64-3.75,3.91-6.38,6.81-7.89,2.89-1.51,6.05-2.27,9.47-2.27Z"/>
  <path class="cls-1" d="M308.92,76.17c-2.83,0-5.23-.54-7.2-1.63-1.97-1.08-3.45-2.56-4.44-4.44-.99-1.88-1.48-3.96-1.48-6.27,0-2.83.66-5.15,1.97-6.96,1.31-1.81,3.01-3.26,5.08-4.34,2.07-1.09,4.26-2.01,6.56-2.76,2.3-.76,4.47-1.48,6.51-2.17,2.04-.69,3.72-1.5,5.03-2.42,1.31-.92,1.97-2.14,1.97-3.65v-7.2c0-2.1-.31-3.83-.94-5.18-.63-1.35-1.55-2.37-2.76-3.06-1.22-.69-2.75-1.04-4.59-1.04-1.38,0-2.83.2-4.34.59-1.51.39-2.76,1.15-3.75,2.27,1.71.46,3.04,1.32,4,2.57.95,1.25,1.43,2.76,1.43,4.54,0,2.04-.67,3.64-2.02,4.79-1.35,1.15-3.04,1.73-5.08,1.73-2.17,0-3.82-.69-4.93-2.07-1.12-1.38-1.68-2.99-1.68-4.83s.46-3.37,1.38-4.59c.92-1.22,2.2-2.32,3.85-3.31,1.64-1.12,3.75-2.01,6.31-2.66,2.57-.66,5.36-.99,8.39-.99s5.46.31,7.7.94c2.24.63,4.14,1.73,5.72,3.31,1.58,1.51,2.6,3.39,3.06,5.62.46,2.24.69,4.97.69,8.19v27.03c0,1.65.2,2.81.59,3.5.4.69,1.02,1.04,1.88,1.04.66,0,1.28-.16,1.88-.49.59-.33,1.25-.79,1.97-1.38l1.09,1.68c-1.45,1.12-2.96,2.01-4.54,2.66-1.58.66-3.49.99-5.72.99s-4.13-.33-5.48-.99c-1.35-.66-2.34-1.61-2.96-2.86-.63-1.25-.97-2.73-1.04-4.44-1.58,2.63-3.52,4.67-5.82,6.12-2.3,1.45-5.07,2.17-8.29,2.17ZM314.84,70.64c1.58,0,3.04-.43,4.39-1.28,1.35-.85,2.58-2.14,3.7-3.85v-19.93c-.66.99-1.59,1.88-2.81,2.66-1.22.79-2.52,1.58-3.9,2.37-1.38.79-2.68,1.69-3.9,2.71-1.22,1.02-2.24,2.27-3.06,3.75-.82,1.48-1.23,3.37-1.23,5.67,0,2.57.62,4.52,1.87,5.87,1.25,1.35,2.89,2.02,4.93,2.02Z"/>
  <path class="cls-1" d="M29.11,6.31v1.97c-2.24.07-3.93.31-5.08.74-1.15.43-1.92,1.22-2.32,2.37-.4,1.15-.59,2.94-.59,5.38v49.73c0,2.11.18,3.7.54,4.79.36,1.09,1.04,1.79,2.02,2.12.99.33,4.85.49,6.7.49h8.4c2.57,0,5.15-.46,7.09-1.38,1.94-.92,3.63-2.27,5.08-4.05,1.45-1.78,2.63-3.96,3.55-6.56.92-2.6,1.58-5.54,1.97-8.83h2.27c-.2,2.17-.3,5-.3,8.49,0,1.45.05,3.52.15,6.22.1,2.7.28,5.49.54,8.39-3.36-.13-7.14-.21-11.35-.25-4.21-.03-11.06-.05-14.35-.05h-8.47c-2.43,0-5.08.02-7.94.05-2.86.03-5.76.07-8.68.1-2.93.03-5.71.08-8.34.15v-1.97c2.17-.13,3.8-.39,4.88-.79,1.09-.39,1.81-1.18,2.17-2.37.36-1.18.54-2.96.54-5.33V16.77c0-2.43-.18-4.23-.54-5.38-.36-1.15-1.09-1.94-2.17-2.37C3.8,8.6,2.17,8.35,0,8.29v-1.97c1.64.07,3.75.13,6.31.2,2.57.07,5.33.1,8.29.1,2.7,0,5.36-.03,7.99-.1,2.63-.06,4.8-.13,6.51-.2Z"/>
</svg>